<?xml version="1.0" encoding="utf-8"?>
<!-- Generator: Adobe Illustrator 25.2.3, SVG Export Plug-In . SVG Version: 6.00 Build 0)  -->
<svg version="1.1" id="Layer_1" xmlns="http://www.w3.org/2000/svg" xmlns:xlink="http://www.w3.org/1999/xlink" x="0px" y="0px"
	 viewBox="0 0 24 24.3" style="enable-background:new 0 0 24 24.3;" xml:space="preserve">
<style type="text/css">
	.st0{fill:#00C891;}
</style>
<g>
	<rect x="14.8" class="st0" width="1.8" height="1.8"/>
	<rect x="18.5" class="st0" width="1.8" height="1.8"/>
	<polygon class="st0" points="22.2,0 22.2,3.7 12.9,3.7 12.9,0 11.1,0 11.1,5.5 24,5.5 24,0 	"/>
	<path class="st0" d="M1.8,1.8h1.8v3.7h5.5V0H0v9.2h1.8V1.8z M5.5,1.8h1.8v1.8H5.5V1.8z"/>
	<rect x="3.7" y="7.4" class="st0" width="20.3" height="1.8"/>
	<polygon class="st0" points="0,11.1 0,24.3 1.8,24.3 1.8,12.9 3.7,12.9 3.7,24.3 5.5,24.3 5.5,12.9 7.4,12.9 7.4,24.3 9.2,24.3 
		9.2,11.1 	"/>
	<polygon class="st0" points="11.1,24.3 16.6,24.3 16.6,14.8 14.8,14.8 14.8,22.5 12.9,22.5 12.9,12.9 16.6,12.9 16.6,11.1 
		11.1,11.1 	"/>
	<polygon class="st0" points="18.5,24.3 24,24.3 24,22.5 20.3,22.5 20.3,12.9 22.2,12.9 22.2,20.6 24,20.6 24,11.1 18.5,11.1 	"/>
</g>
</svg>
