<?xml version="1.0" encoding="utf-8"?>
<!-- Generator: Adobe Illustrator 25.2.3, SVG Export Plug-In . SVG Version: 6.00 Build 0)  -->
<svg version="1.1" id="Layer_1" xmlns="http://www.w3.org/2000/svg" xmlns:xlink="http://www.w3.org/1999/xlink" x="0px" y="0px"
	 viewBox="0 0 24 24" style="enable-background:new 0 0 24 24;" xml:space="preserve">
<style type="text/css">
	.st0{fill:#00C891;}
</style>
<g>
	<path class="st0" d="M16.8,7h-1.9c-0.3,0-0.5,0.2-0.5,0.5v1.8c0,0.3,0.1,0.5,0.3,0.7l0.8,0.8c0.1,0.1,0.2,0.1,0.4,0.1
		c0.2,0,0.3,0,0.4-0.1L17,10c0.2-0.2,0.3-0.4,0.3-0.7V7.5C17.3,7.2,17,7,16.8,7L16.8,7z M20.1,10.4h-1.9c-0.1,0-0.3,0.1-0.4,0.1
		l-1,1c-0.2,0.2-0.2,0.5,0,0.7l1,1c0.1,0.1,0.2,0.1,0.4,0.1h1.9c0.3,0,0.5-0.2,0.5-0.5v-1.9C20.6,10.7,20.4,10.4,20.1,10.4
		L20.1,10.4z M13.4,10.4h-1.9c-0.3,0-0.5,0.2-0.5,0.5v1.9c0,0.3,0.2,0.5,0.5,0.5h1.9c0.1,0,0.3-0.1,0.4-0.1l1-1
		c0.2-0.2,0.2-0.5,0-0.7l-1-1C13.7,10.5,13.6,10.4,13.4,10.4L13.4,10.4z M15.8,12.9c-0.1,0-0.3,0-0.4,0.1l-0.8,0.8
		c-0.2,0.2-0.3,0.4-0.3,0.7v1.8c0,0.3,0.2,0.5,0.5,0.5h1.9c0.3,0,0.5-0.2,0.5-0.5v-1.8c0-0.3-0.1-0.5-0.3-0.7L16.2,13
		C16.1,12.9,16,12.9,15.8,12.9L15.8,12.9z"/>
</g>
<path class="st0" d="M12.1,23c-3,0-5.9-1.2-8-3.3c-2.1-2.1-3.2-5-3.1-8C1.2,5.8,6.2,1,12.1,1c0.1,0,0.1,0,0.2,0
	c3.1,0.1,6.1,1.4,8.2,3.8c0.2,0.2,0.2,0.5,0,0.7c-0.2,0.2-0.5,0.2-0.7,0.1c-1.8-1.1-3.9-1.5-6-1.1c-3,0.6-5.4,3-6,6
	c-0.5,2.3,0.1,4.7,1.6,6.4c1.5,1.8,3.7,2.8,6,2.8c1.5,0,3-0.4,4.3-1.3c0.2-0.2,0.5-0.1,0.7,0.1c0.2,0.2,0.2,0.5,0,0.7
	C18.4,21.6,15.3,23,12.1,23z"/>
</svg>
