<?xml version="1.0" encoding="utf-8"?>
<!-- Generator: Adobe Illustrator 25.2.3, SVG Export Plug-In . SVG Version: 6.00 Build 0)  -->
<svg version="1.1" id="Layer_1" xmlns="http://www.w3.org/2000/svg" xmlns:xlink="http://www.w3.org/1999/xlink" x="0px" y="0px"
	 viewBox="0 0 128 166.9" style="enable-background:new 0 0 128 166.9;" xml:space="preserve">
<style type="text/css">
	.st0{fill:#FFC107;}
	.st1{fill:#FFFFFF;}
</style>
<rect x="0.5" y="1" class="st0" width="127" height="126"/>
<g>
	<path d="M61.1,118.4c8.9,0,16.8-1.6,23.6-4.9c6.8-3.3,12.1-7.9,15.9-14c3.8-6.1,5.7-13.2,5.7-21.4c0-8.2-1.9-15.3-5.7-21.4
		c-3.8-6.1-9.1-10.7-15.9-14C77.9,39.6,70.1,38,61.1,38H21.7v80.4H61.1z M48.7,59.1H60c5.8,0,10.4,1.7,13.9,5
		c3.5,3.3,5.2,8,5.2,14.1c0,6.1-1.7,10.7-5.2,14.1c-3.5,3.3-8.1,5-13.9,5H48.7V59.1z"/>
	<path d="M26.6,10.1c-0.9-0.5-2-0.7-3.3-0.7H18v11.2h5.3c1.2,0,2.3-0.2,3.3-0.7c0.9-0.5,1.7-1.1,2.2-2s0.8-1.8,0.8-3
		c0-1.1-0.3-2.1-0.8-3S27.5,10.6,26.6,10.1z M25.5,17.3c-0.6,0.5-1.4,0.8-2.3,0.8h-2V12h2c1,0,1.7,0.3,2.3,0.8
		c0.6,0.5,0.9,1.3,0.9,2.3S26.1,16.8,25.5,17.3z"/>
	<path d="M40.1,10c-0.9-0.5-2-0.8-3.2-0.8c-1.2,0-2.2,0.3-3.2,0.8c-0.9,0.5-1.7,1.2-2.2,2.1c-0.5,0.9-0.8,1.9-0.8,3s0.3,2.1,0.8,3
		c0.5,0.9,1.3,1.6,2.2,2.1c0.9,0.5,2,0.8,3.2,0.8c1.2,0,2.2-0.2,3.2-0.8c0.9-0.5,1.7-1.2,2.2-2.1c0.5-0.9,0.8-1.9,0.8-3
		s-0.3-2.1-0.8-3S41,10.5,40.1,10z M39.5,16.7c-0.3,0.5-0.6,0.9-1.1,1.1s-1,0.4-1.5,0.4s-1.1-0.1-1.5-0.4c-0.5-0.3-0.8-0.6-1.1-1.1
		s-0.4-1-0.4-1.7c0-0.6,0.1-1.2,0.4-1.7c0.3-0.5,0.6-0.9,1.1-1.1c0.5-0.3,1-0.4,1.5-0.4s1.1,0.1,1.5,0.4c0.5,0.3,0.8,0.6,1.1,1.1
		c0.3,0.5,0.4,1,0.4,1.7C39.9,15.7,39.8,16.2,39.5,16.7z"/>
	<path d="M52.1,15.6c0,1.8-0.7,2.7-2.1,2.7c-1.4,0-2.1-0.9-2.1-2.7V9.5h-3.2v6.2c0,1.7,0.5,2.9,1.4,3.9c0.9,0.9,2.2,1.4,3.9,1.4
		s3-0.5,3.9-1.4c0.9-0.9,1.4-2.2,1.4-3.9V9.5h-3.1V15.6z"/>
	<path d="M65.9,14.8c0.5-0.2,0.9-0.6,1.1-1c0.3-0.4,0.4-0.9,0.4-1.4c0-0.9-0.4-1.6-1.1-2.1c-0.7-0.5-1.8-0.8-3.3-0.8h-5.7v11.2h6
		c1.5,0,2.6-0.3,3.4-0.8c0.8-0.5,1.2-1.3,1.2-2.3c0-0.7-0.2-1.2-0.5-1.7C67.1,15.4,66.6,15,65.9,14.8z M60.5,11.7h2.2
		c1.1,0,1.6,0.4,1.6,1.1c0,0.7-0.5,1.1-1.6,1.1h-2.2V11.7z M63.1,18.4h-2.7v-2.3h2.7c1.1,0,1.7,0.4,1.7,1.1S64.2,18.4,63.1,18.4z"/>
	<polygon points="68.4,12 71.9,12 71.9,20.7 75,20.7 75,12 78.4,12 78.4,9.5 68.4,9.5 	"/>
	<polygon points="79.6,20.7 82.8,20.7 82.8,16.8 87.7,16.8 87.7,14.4 82.8,14.4 82.8,11.9 88.4,11.9 88.4,9.5 79.6,9.5 	"/>
	<path d="M97.2,15.6c0,1.8-0.7,2.7-2.1,2.7c-1.4,0-2.1-0.9-2.1-2.7V9.5h-3.2v6.2c0,1.7,0.5,2.9,1.4,3.9c0.9,0.9,2.2,1.4,3.9,1.4
		s3-0.5,3.9-1.4c0.9-0.9,1.4-2.2,1.4-3.9V9.5h-3.1V15.6z"/>
	<polygon points="105.6,18.1 105.6,9.5 102.5,9.5 102.5,20.7 111,20.7 111,18.1 	"/>
	<path d="M0,0v128v38.9h128V128V0H0z M127,127H1V30h126V127z M1,29V1h126v28H1z"/>
</g>
<g>
	<path class="st1" d="M14.8,141.2c-0.6,0-1.1,0.1-1.6,0.4c-0.5,0.3-0.8,0.6-1.1,1.1h-0.2c-0.2-0.5-0.5-0.8-1-1.1
		c-0.4-0.3-1-0.4-1.7-0.4c-0.4,0-0.8,0.1-1.2,0.2c-0.4,0.1-0.7,0.3-0.9,0.5c-0.3,0.2-0.5,0.5-0.7,0.8H6.3l-0.4-1.4H3.6v11h3v-5.1
		c0-0.8,0-1.4,0.1-2c0.1-0.5,0.2-0.9,0.5-1.2c0.2-0.3,0.5-0.4,0.9-0.4c0.3,0,0.5,0.1,0.6,0.2c0.2,0.2,0.3,0.4,0.4,0.8
		c0.1,0.3,0.1,0.8,0.1,1.3v6.3h3V147c0-1.1,0.1-1.9,0.3-2.4c0.2-0.5,0.6-0.8,1.1-0.8c0.4,0,0.7,0.2,0.9,0.6c0.2,0.4,0.3,1,0.3,1.7
		v6.3h3v-7.2c0-1.4-0.3-2.4-0.8-3C16.6,141.5,15.8,141.2,14.8,141.2z"/>
	<path class="st1" d="M26,142.8h-0.1c-0.3-0.6-0.7-1-1.1-1.2c-0.4-0.3-0.9-0.4-1.5-0.4c-1.1,0-2,0.5-2.6,1.5c-0.6,1-0.9,2.4-0.9,4.2
		c0,1.8,0.3,3.2,0.9,4.2c0.6,1,1.5,1.5,2.5,1.5c0.6,0,1.1-0.1,1.5-0.4c0.4-0.3,0.8-0.7,1.1-1.2h0.1c0,0.2,0,0.5-0.1,0.8
		c0,0.3,0,0.5,0,0.7v0.2c0,0.7-0.2,1.3-0.6,1.6c-0.4,0.3-0.9,0.5-1.6,0.5c-0.6,0-1.1-0.1-1.7-0.2c-0.5-0.1-1.1-0.3-1.7-0.6v2.6
		c0.5,0.3,1,0.4,1.6,0.6s1.2,0.2,1.9,0.2c1.2,0,2.1-0.2,2.9-0.6c0.8-0.4,1.3-1,1.7-1.8s0.5-1.8,0.5-2.9v-10.5h-2.6L26,142.8z
		 M25.9,147.3c0,0.5,0,0.9-0.1,1.2c-0.1,0.3-0.2,0.6-0.3,0.8s-0.3,0.4-0.5,0.5s-0.4,0.2-0.7,0.2c-0.5,0-0.9-0.2-1.1-0.8
		s-0.4-1.3-0.4-2.3c0-0.7,0.1-1.3,0.2-1.8c0.1-0.5,0.3-0.8,0.5-1.1c0.2-0.2,0.5-0.4,0.8-0.4c0.4,0,0.7,0.1,0.9,0.3
		c0.2,0.2,0.4,0.5,0.5,1c0.1,0.4,0.2,1,0.2,1.7V147.3z"/>
	<path class="st1" d="M34.7,144.1c0.3-0.2,0.6-0.4,1-0.4c0.3,0,0.7,0,1,0.1c0.3,0.1,0.7,0.2,1,0.5l0.9-2.4c-0.4-0.2-0.9-0.4-1.4-0.6
		c-0.5-0.1-1.1-0.2-1.7-0.2c-1,0-1.9,0.2-2.6,0.7c-0.7,0.5-1.2,1.1-1.6,2c-0.4,0.9-0.5,1.9-0.5,3c0,1.3,0.2,2.3,0.5,3.2
		s0.9,1.5,1.5,1.9c0.7,0.4,1.5,0.6,2.5,0.6c0.6,0,1.1-0.1,1.6-0.2c0.5-0.1,0.9-0.4,1.3-0.7v-2.6c-0.4,0.3-0.8,0.5-1.3,0.7
		s-0.9,0.2-1.3,0.2c-0.4,0-0.7-0.1-1-0.3s-0.5-0.6-0.6-1c-0.1-0.5-0.2-1-0.2-1.7s0.1-1.3,0.2-1.8C34.2,144.7,34.4,144.3,34.7,144.1z
		"/>
	<path class="st1" d="M44.1,141.5c-0.4,0-0.8,0.1-1.1,0.3c-0.3,0.2-0.6,0.5-0.8,0.8c-0.2,0.3-0.4,0.7-0.5,1.1h-0.1l-0.2-2.1h-0.9
		v10.6h1.1v-5.6c0-0.5,0.1-1.1,0.2-1.6c0.1-0.5,0.3-0.9,0.5-1.3c0.2-0.4,0.5-0.7,0.8-0.9s0.6-0.3,1-0.3c0.2,0,0.3,0,0.5,0
		c0.2,0,0.3,0.1,0.4,0.1l0.2-1.1c-0.2-0.1-0.3-0.1-0.5-0.1C44.4,141.6,44.2,141.5,44.1,141.5z"/>
	<path class="st1" d="M49.4,141.5c-0.5,0-1,0.1-1.4,0.2c-0.5,0.1-0.9,0.3-1.3,0.6l0.4,0.9c0.4-0.2,0.8-0.4,1.2-0.5
		c0.4-0.1,0.7-0.2,1.1-0.2c0.7,0,1.1,0.2,1.4,0.6c0.3,0.4,0.5,1.1,0.5,2.2v0.8l-1.4,0.1c-1.3,0.1-2.3,0.4-3,1c-0.7,0.6-1,1.4-1,2.4
		c0,0.5,0.1,1,0.3,1.5c0.2,0.5,0.5,0.8,0.9,1.1s0.9,0.4,1.5,0.4c0.5,0,0.9-0.1,1.3-0.2c0.4-0.2,0.7-0.4,0.9-0.7
		c0.2-0.3,0.4-0.6,0.6-1h0l0.2,1.7h0.8v-7.2c0-1.3-0.2-2.2-0.7-2.8S50.5,141.5,49.4,141.5z M51.3,148c0,1.1-0.2,2-0.6,2.6
		c-0.4,0.7-1,1-1.9,1c-0.6,0-1-0.2-1.3-0.5c-0.3-0.4-0.5-0.9-0.5-1.6c0-0.8,0.2-1.4,0.7-1.8s1.2-0.7,2.2-0.7l1.3-0.1V148z"/>
	<path class="st1" d="M57.6,151.6c-0.5,0-0.8-0.2-1-0.5c-0.2-0.3-0.3-0.8-0.3-1.4v-7.1h2.3v-0.9h-2.3v-2.5h-0.7l-0.3,2.5l-1.2,0.3
		v0.6h1.2v7.1c0,0.6,0.1,1.1,0.2,1.6s0.4,0.7,0.7,0.9c0.3,0.2,0.7,0.3,1.2,0.3c0.3,0,0.5,0,0.7-0.1c0.2-0.1,0.4-0.1,0.6-0.2v-0.9
		c-0.1,0.1-0.3,0.1-0.5,0.2C58,151.6,57.8,151.6,57.6,151.6z"/>
	<path class="st1" d="M61.1,137.7c-0.3,0-0.4,0.1-0.6,0.2c-0.1,0.2-0.2,0.4-0.2,0.7c0,0.3,0.1,0.5,0.2,0.7c0.1,0.2,0.3,0.2,0.6,0.2
		c0.2,0,0.4-0.1,0.5-0.2c0.1-0.2,0.2-0.4,0.2-0.7c0-0.3-0.1-0.5-0.2-0.7C61.6,137.8,61.4,137.7,61.1,137.7z"/>
	<rect x="60.6" y="141.7" class="st1" width="1.1" height="10.6"/>
	<path class="st1" d="M68.5,141.5c-0.5,0-0.9,0.1-1.3,0.3c-0.4,0.2-0.7,0.4-0.9,0.7c-0.3,0.3-0.5,0.7-0.6,1h-0.1l-0.1-1.8h-0.9v10.6
		h1.1v-5.9c0-1.4,0.2-2.4,0.7-3c0.5-0.7,1.1-1,2-1c0.6,0,1.1,0.2,1.4,0.7c0.3,0.5,0.5,1.2,0.5,2.1v7.1h1.1v-7.3
		c0-1.2-0.2-2.1-0.7-2.7C70.2,141.8,69.5,141.5,68.5,141.5z"/>
	<path class="st1" d="M80.1,143.3L80.1,143.3c-0.3-0.5-0.7-1-1.1-1.3c-0.4-0.3-1-0.5-1.7-0.5c-1.2,0-2,0.5-2.6,1.5
		c-0.6,1-0.9,2.3-0.9,4.1c0,1.8,0.3,3.2,0.9,4.1c0.6,0.9,1.4,1.4,2.5,1.4c0.7,0,1.3-0.2,1.8-0.5c0.5-0.4,0.8-0.9,1.1-1.5h0.1
		c0,0.3,0,0.6-0.1,0.9c0,0.3,0,0.6,0,0.8v0.6c0,1.1-0.2,2-0.7,2.5c-0.5,0.5-1.2,0.8-2.2,0.8c-0.5,0-1-0.1-1.5-0.2
		c-0.5-0.1-0.9-0.3-1.3-0.6v1.1c0.4,0.2,0.8,0.4,1.3,0.5c0.5,0.1,1,0.2,1.5,0.2c0.9,0,1.7-0.2,2.3-0.5c0.6-0.3,1-0.8,1.3-1.5
		c0.3-0.7,0.4-1.5,0.4-2.4v-11h-0.9L80.1,143.3z M80,147.6c0,0.6-0.1,1.1-0.2,1.6c-0.1,0.5-0.3,0.9-0.5,1.3
		c-0.2,0.4-0.5,0.7-0.8,0.9c-0.3,0.2-0.7,0.3-1.2,0.3c-0.8,0-1.5-0.4-1.9-1.1s-0.6-1.9-0.6-3.4c0-1,0.1-1.8,0.3-2.5
		c0.2-0.7,0.5-1.2,0.8-1.6c0.4-0.4,0.9-0.6,1.5-0.6c0.6,0,1.1,0.2,1.5,0.5s0.7,0.8,0.8,1.4c0.2,0.6,0.3,1.3,0.3,2.1V147.6z"/>
	<path class="st1" d="M87.9,147.3c-0.4-0.3-0.8-0.5-1.3-0.8c-0.5-0.3-0.9-0.5-1.2-0.7c-0.3-0.2-0.6-0.4-0.7-0.7
		c-0.2-0.2-0.2-0.5-0.2-0.9c0-0.5,0.2-1,0.6-1.3c0.4-0.3,0.9-0.5,1.5-0.5c0.4,0,0.8,0.1,1.1,0.2c0.4,0.1,0.7,0.3,1,0.4l0.4-0.9
		c-0.3-0.2-0.7-0.4-1.2-0.5s-0.9-0.2-1.4-0.2c-1,0-1.8,0.2-2.3,0.8c-0.6,0.5-0.8,1.1-0.8,2c0,0.6,0.1,1,0.3,1.4
		c0.2,0.4,0.5,0.7,0.9,1c0.4,0.3,0.8,0.5,1.3,0.8c0.5,0.2,0.9,0.4,1.2,0.7c0.3,0.2,0.5,0.4,0.7,0.7c0.2,0.3,0.2,0.6,0.2,1
		c0,0.6-0.2,1.1-0.5,1.4c-0.4,0.3-0.9,0.5-1.6,0.5c-0.5,0-1-0.1-1.4-0.2s-0.9-0.3-1.2-0.6v1.1c0.3,0.2,0.7,0.3,1.1,0.5
		c0.4,0.1,1,0.2,1.5,0.2c0.7,0,1.3-0.1,1.8-0.4c0.5-0.2,0.8-0.6,1.1-1c0.2-0.4,0.4-1,0.4-1.6c0-0.6-0.1-1.1-0.3-1.4
		C88.6,147.8,88.3,147.5,87.9,147.3z"/>
	<path class="st1" d="M92.1,150.5c-0.3,0-0.5,0.1-0.6,0.3c-0.1,0.2-0.2,0.4-0.2,0.7c0,0.3,0.1,0.6,0.2,0.7c0.1,0.2,0.3,0.3,0.6,0.3
		c0.3,0,0.5-0.1,0.6-0.2c0.1-0.2,0.2-0.4,0.2-0.8c0-0.3-0.1-0.6-0.2-0.8C92.6,150.6,92.4,150.5,92.1,150.5z"/>
	<path class="st1" d="M97.7,143c0.4-0.4,1-0.5,1.6-0.5c0.3,0,0.6,0,0.8,0.1s0.5,0.2,0.8,0.3l0.3-0.9c-0.3-0.1-0.6-0.3-0.9-0.3
		s-0.7-0.1-1.1-0.1c-0.8,0-1.6,0.2-2.2,0.7c-0.6,0.4-1.1,1.1-1.4,1.9c-0.3,0.8-0.5,1.8-0.5,3c0,1.1,0.1,2.1,0.4,2.9
		c0.3,0.8,0.7,1.4,1.3,1.9s1.3,0.6,2.1,0.6c0.4,0,0.7,0,1.1-0.1c0.4-0.1,0.7-0.2,1-0.4v-1c-0.3,0.1-0.6,0.3-1,0.3
		c-0.3,0.1-0.7,0.1-1,0.1c-0.7,0-1.2-0.2-1.6-0.5c-0.4-0.4-0.7-0.9-0.9-1.5c-0.2-0.7-0.3-1.5-0.3-2.4c0-1,0.1-1.8,0.4-2.5
		C96.9,143.9,97.2,143.4,97.7,143z"/>
	<path class="st1" d="M108.6,142.2c-0.6-0.4-1.2-0.7-2.1-0.7s-1.5,0.2-2.1,0.6c-0.6,0.4-1,1-1.3,1.9s-0.4,1.8-0.4,3
		c0,0.9,0.1,1.6,0.2,2.3c0.2,0.7,0.4,1.3,0.7,1.7c0.3,0.5,0.7,0.8,1.2,1.1c0.5,0.3,1,0.4,1.6,0.4c0.6,0,1.2-0.1,1.6-0.4
		c0.5-0.2,0.9-0.6,1.2-1.1c0.3-0.5,0.6-1.1,0.7-1.7c0.2-0.7,0.2-1.5,0.2-2.3c0-1.1-0.1-2.1-0.4-3S109.1,142.6,108.6,142.2z
		 M108.8,149.5c-0.2,0.7-0.5,1.2-0.9,1.5c-0.4,0.3-0.9,0.5-1.5,0.5c-0.6,0-1.1-0.2-1.5-0.5c-0.4-0.4-0.7-0.9-0.9-1.6
		c-0.2-0.7-0.3-1.5-0.3-2.5c0-1.5,0.2-2.6,0.6-3.4s1.1-1.2,2-1.2c0.6,0,1.1,0.2,1.5,0.5c0.4,0.4,0.7,0.9,0.9,1.6
		c0.2,0.7,0.3,1.5,0.3,2.4C109.1,148,109,148.8,108.8,149.5z"/>
	<path class="st1" d="M123.5,142.4c-0.5-0.6-1.1-0.9-2-0.9c-0.7,0-1.2,0.2-1.7,0.5c-0.4,0.3-0.8,0.8-1,1.4h-0.1
		c-0.1-0.6-0.4-1-0.8-1.4c-0.4-0.4-0.9-0.5-1.6-0.5c-0.5,0-0.9,0.1-1.2,0.3c-0.3,0.2-0.6,0.4-0.8,0.7c-0.2,0.3-0.4,0.6-0.5,1h-0.1
		l-0.1-1.7h-0.9v10.6h1.1v-6.1c0-0.7,0.1-1.4,0.2-1.9c0.2-0.6,0.4-1,0.8-1.3c0.3-0.3,0.8-0.5,1.3-0.5c0.4,0,0.7,0.1,1,0.3
		s0.5,0.5,0.6,0.9c0.1,0.4,0.2,1,0.2,1.7v7h1.1V146c0-1.1,0.2-2,0.6-2.6s1-0.9,1.7-0.9c0.5,0,1,0.2,1.3,0.6s0.5,1.1,0.5,2.1v7.1h1.1
		v-7.3C124.2,143.9,123.9,143,123.5,142.4z"/>
</g>
</svg>
